<mxfile host="65bd71144e">
    <diagram id="UEoaNEac5jyoOR9Y5YZS" name="Page-1">
        <mxGraphModel dx="702" dy="611" grid="1" gridSize="10" guides="1" tooltips="1" connect="1" arrows="1" fold="1" page="1" pageScale="1" pageWidth="850" pageHeight="1100" math="0" shadow="0">
            <root>
                <mxCell id="0"/>
                <mxCell id="1" parent="0"/>
                <mxCell id="2" value="User" style="swimlane;childLayout=stackLayout;horizontal=1;startSize=50;horizontalStack=0;rounded=1;fontSize=14;fontStyle=0;strokeWidth=2;resizeParent=0;resizeLast=1;shadow=0;dashed=0;align=center;arcSize=4;whiteSpace=wrap;html=1;" vertex="1" parent="1">
                    <mxGeometry x="240" y="40" width="160" height="120" as="geometry"/>
                </mxCell>
                <mxCell id="3" value="+id&lt;br&gt;+email&lt;br&gt;+name&lt;div&gt;&lt;font style=&quot;color: rgb(0, 0, 0);&quot;&gt;+role&lt;/font&gt;&lt;/div&gt;" style="align=left;strokeColor=none;fillColor=none;spacingLeft=4;fontSize=12;verticalAlign=top;resizable=0;rotatable=0;part=1;html=1;" vertex="1" parent="2">
                    <mxGeometry y="50" width="160" height="70" as="geometry"/>
                </mxCell>
                <mxCell id="4" value="Connection" style="swimlane;childLayout=stackLayout;horizontal=1;startSize=50;horizontalStack=0;rounded=1;fontSize=14;fontStyle=0;strokeWidth=2;resizeParent=0;resizeLast=1;shadow=0;dashed=0;align=center;arcSize=4;whiteSpace=wrap;html=1;" vertex="1" parent="1">
                    <mxGeometry x="240" y="240" width="160" height="110" as="geometry"/>
                </mxCell>
                <mxCell id="5" value="+id&lt;br&gt;+dbConfig&lt;br&gt;+name" style="align=left;strokeColor=none;fillColor=none;spacingLeft=4;fontSize=12;verticalAlign=top;resizable=0;rotatable=0;part=1;html=1;" vertex="1" parent="4">
                    <mxGeometry y="50" width="160" height="60" as="geometry"/>
                </mxCell>
                <mxCell id="8" value="" style="endArrow=diamondThin;endFill=1;endSize=24;html=1;exitX=0.5;exitY=0;exitDx=0;exitDy=0;entryX=0.5;entryY=1;entryDx=0;entryDy=0;" edge="1" parent="1" source="4" target="3">
                    <mxGeometry width="160" relative="1" as="geometry">
                        <mxPoint x="270" y="330" as="sourcePoint"/>
                        <mxPoint x="430" y="330" as="targetPoint"/>
                    </mxGeometry>
                </mxCell>
                <mxCell id="10" style="edgeStyle=none;html=1;endArrow=block;endFill=0;entryX=0.5;entryY=1;entryDx=0;entryDy=0;exitX=0.5;exitY=0;exitDx=0;exitDy=0;" edge="1" parent="1" source="13" target="5">
                    <mxGeometry relative="1" as="geometry">
                        <mxPoint x="250" y="460" as="targetPoint"/>
                        <mxPoint x="320" y="400" as="sourcePoint"/>
                        <Array as="points">
                            <mxPoint x="120" y="400"/>
                            <mxPoint x="320" y="400"/>
                        </Array>
                    </mxGeometry>
                </mxCell>
                <mxCell id="11" value="SQLite Database" style="swimlane;childLayout=stackLayout;horizontal=1;startSize=50;horizontalStack=0;rounded=1;fontSize=14;fontStyle=0;strokeWidth=2;resizeParent=0;resizeLast=1;shadow=0;dashed=0;align=center;arcSize=4;whiteSpace=wrap;html=1;" vertex="1" parent="1">
                    <mxGeometry x="240" y="440" width="160" height="80" as="geometry"/>
                </mxCell>
                <mxCell id="12" value="+filename" style="align=left;strokeColor=none;fillColor=none;spacingLeft=4;fontSize=12;verticalAlign=top;resizable=0;rotatable=0;part=1;html=1;" vertex="1" parent="11">
                    <mxGeometry y="50" width="160" height="30" as="geometry"/>
                </mxCell>
                <mxCell id="13" value="MySQL Database" style="swimlane;childLayout=stackLayout;horizontal=1;startSize=50;horizontalStack=0;rounded=1;fontSize=14;fontStyle=0;strokeWidth=2;resizeParent=0;resizeLast=1;shadow=0;dashed=0;align=center;arcSize=4;whiteSpace=wrap;html=1;" vertex="1" parent="1">
                    <mxGeometry x="40" y="440" width="160" height="140" as="geometry"/>
                </mxCell>
                <mxCell id="14" value="+host&lt;br&gt;+user&lt;br&gt;+password&lt;div&gt;&lt;font style=&quot;color: rgb(0, 0, 0);&quot;&gt;+database&lt;/font&gt;&lt;/div&gt;&lt;div&gt;&lt;font style=&quot;color: rgb(0, 0, 0);&quot;&gt;+port&lt;/font&gt;&lt;/div&gt;" style="align=left;strokeColor=none;fillColor=none;spacingLeft=4;fontSize=12;verticalAlign=top;resizable=0;rotatable=0;part=1;html=1;" vertex="1" parent="13">
                    <mxGeometry y="50" width="160" height="90" as="geometry"/>
                </mxCell>
                <mxCell id="15" value="LibSQL Database" style="swimlane;childLayout=stackLayout;horizontal=1;startSize=50;horizontalStack=0;rounded=1;fontSize=14;fontStyle=0;strokeWidth=2;resizeParent=0;resizeLast=1;shadow=0;dashed=0;align=center;arcSize=4;whiteSpace=wrap;html=1;" vertex="1" parent="1">
                    <mxGeometry x="440" y="440" width="160" height="100" as="geometry"/>
                </mxCell>
                <mxCell id="16" value="+url&lt;br&gt;+token" style="align=left;strokeColor=none;fillColor=none;spacingLeft=4;fontSize=12;verticalAlign=top;resizable=0;rotatable=0;part=1;html=1;" vertex="1" parent="15">
                    <mxGeometry y="50" width="160" height="50" as="geometry"/>
                </mxCell>
                <mxCell id="17" style="edgeStyle=none;html=1;endArrow=block;endFill=0;entryX=0.5;entryY=1;entryDx=0;entryDy=0;exitX=0.5;exitY=0;exitDx=0;exitDy=0;" edge="1" parent="1" source="11" target="5">
                    <mxGeometry relative="1" as="geometry">
                        <mxPoint x="330" y="360" as="targetPoint"/>
                        <mxPoint x="130" y="450" as="sourcePoint"/>
                        <Array as="points">
                            <mxPoint x="320" y="400"/>
                        </Array>
                    </mxGeometry>
                </mxCell>
                <mxCell id="18" style="edgeStyle=none;html=1;endArrow=block;endFill=0;entryX=0.5;entryY=1;entryDx=0;entryDy=0;exitX=0.5;exitY=0;exitDx=0;exitDy=0;" edge="1" parent="1" source="15" target="5">
                    <mxGeometry relative="1" as="geometry">
                        <mxPoint x="340" y="370" as="targetPoint"/>
                        <mxPoint x="140" y="460" as="sourcePoint"/>
                        <Array as="points">
                            <mxPoint x="520" y="400"/>
                            <mxPoint x="320" y="400"/>
                        </Array>
                    </mxGeometry>
                </mxCell>
            </root>
        </mxGraphModel>
    </diagram>
</mxfile>